M48
METRIC,LZ,000.000
;FILE_FORMAT=3:3
;TYPE=PLATED
;Layer: PTH_Through
;EasyEDA v6.5.47, 2024-10-08 22:28:42
;1ebfd5db29c148b9bf331c51237545a2,bd0a3265f8cf4f36a4e098e39f96ef10,10
;Gerber Generator version 0.2
;Holesize 1 = 0.501 mm
T01C0.501
;Holesize 2 = 0.915 mm
T02C0.915
;Holesize 3 = 1.000 mm
T03C1.000
%
G05
G90
T01
X048097Y013261
X048097Y011661
X048097Y010061
X046597Y013261
X045097Y013261
X043597Y013261
X043597Y011661
X043597Y010061
X045097Y010061
X046597Y010061
T02
X044641Y019000
X044641Y021540
X044641Y024080
X044641Y026620
X017590Y021921
X017590Y019381
X017590Y016841
X017590Y014301
X017590Y011761
X017590Y009221
T03
X042799Y002286
X045339Y002286
X048387Y021717
X048387Y019177
M30
