G04 Layer: TopSolderMaskLayer*
G04 EasyEDA v6.5.47, 2024-10-08 22:28:42*
G04 1ebfd5db29c148b9bf331c51237545a2,bd0a3265f8cf4f36a4e098e39f96ef10,10*
G04 Gerber Generator version 0.2*
G04 Scale: 100 percent, Rotated: No, Reflected: No *
G04 Dimensions in millimeters *
G04 leading zeros omitted , absolute positions ,4 integer and 5 decimal *
%FSLAX45Y45*%
%MOMM*%

%AMMACRO1*4,1,8,-0.7711,-0.8009,-0.8009,-0.7709,-0.8009,0.7711,-0.7711,0.8009,0.7709,0.8009,0.8009,0.7711,0.8009,-0.7709,0.7709,-0.8009,-0.7711,-0.8009,0*%
%AMMACRO2*4,1,8,-0.771,-0.8009,-0.8007,-0.7709,-0.8007,0.7711,-0.771,0.8009,0.7708,0.8009,0.8007,0.7711,0.8007,-0.7709,0.7708,-0.8009,-0.771,-0.8009,0*%
%AMMACRO3*4,1,8,-0.7831,-0.8128,-0.8128,-0.7828,-0.8128,0.7831,-0.7831,0.8128,0.7828,0.8128,0.8128,0.7831,0.8128,-0.7828,0.7828,-0.8128,-0.7831,-0.8128,0*%
%AMMACRO4*4,1,8,-1.0208,-0.65,-1.05,-0.6205,-1.05,0.6208,-1.0208,0.65,1.0206,0.65,1.05,0.6208,1.05,-0.6205,1.0206,-0.65,-1.0208,-0.65,0*%
%AMMACRO5*4,1,8,-0.6208,-1.05,-0.65,-1.0206,-0.65,1.0208,-0.6208,1.05,0.6205,1.05,0.65,1.0208,0.65,-1.0206,0.6205,-1.05,-0.6208,-1.05,0*%
%AMMACRO6*4,1,8,-0.8212,-0.9508,-0.8509,-0.9209,-0.8509,0.9211,-0.8212,0.9508,0.8209,0.9508,0.8509,0.9211,0.8509,-0.9209,0.8209,-0.9508,-0.8212,-0.9508,0*%
%AMMACRO7*4,1,8,-0.7911,-0.8208,-0.8208,-0.7908,-0.8208,0.7911,-0.7911,0.8208,0.7908,0.8208,0.8208,0.7911,0.8208,-0.7908,0.7908,-0.8208,-0.7911,-0.8208,0*%
%AMMACRO8*4,1,8,-0.3292,-1.1702,-0.3701,-1.129,-0.3701,1.1293,-0.3292,1.1702,0.3289,1.1702,0.3701,1.1293,0.3701,-1.129,0.3289,-1.1702,-0.3292,-1.1702,0*%
%ADD10MACRO1*%
%ADD11MACRO2*%
%ADD12MACRO3*%
%ADD13MACRO4*%
%ADD14MACRO5*%
%ADD15MACRO6*%
%ADD16MACRO7*%
%ADD17R,3.5000X2.2000*%
%ADD18MACRO8*%
%ADD19C,0.5000*%

%LPD*%
D10*
G01*
X4584700Y1536700D03*
D11*
G01*
X4934699Y1536700D03*
D12*
G01*
X4464100Y1899996D03*
G01*
X4464100Y2153996D03*
G01*
X4464100Y2407996D03*
G01*
X4464100Y2661996D03*
D13*
G01*
X2406802Y1963800D03*
G01*
X2406802Y1763801D03*
G01*
X2406802Y1563801D03*
G01*
X2406802Y1363802D03*
G01*
X2406802Y1163802D03*
G01*
X2406802Y963802D03*
G01*
X2406802Y763803D03*
G01*
X2406802Y563803D03*
D14*
G01*
X2706801Y413791D03*
G01*
X2906801Y413791D03*
G01*
X3106801Y413791D03*
G01*
X3306800Y413791D03*
G01*
X3506800Y413791D03*
G01*
X3706799Y413791D03*
D13*
G01*
X4006799Y563803D03*
G01*
X4006799Y763803D03*
G01*
X4006799Y963802D03*
G01*
X4006799Y1163802D03*
G01*
X4006799Y1363802D03*
G01*
X4006799Y1563801D03*
G01*
X4006799Y1763801D03*
G01*
X4006799Y1963800D03*
D15*
G01*
X4837099Y2415908D03*
G01*
X4837099Y2735897D03*
D12*
G01*
X1759000Y2192096D03*
G01*
X1759000Y1938096D03*
G01*
X1759000Y1684096D03*
G01*
X1759000Y1430096D03*
G01*
X1759000Y1176096D03*
G01*
X1759000Y922096D03*
D16*
G01*
X4279912Y228587D03*
G01*
X4533912Y228587D03*
G01*
X4838712Y2171687D03*
G01*
X4838712Y1917687D03*
D17*
G01*
X4584700Y1166088D03*
D18*
G01*
X4838700Y546100D03*
G01*
X4711700Y546100D03*
G01*
X4584700Y546100D03*
G01*
X4457700Y546100D03*
G01*
X4330700Y546100D03*
D19*
G01*
X4809693Y1326108D03*
G01*
X4809693Y1166088D03*
G01*
X4809693Y1006094D03*
G01*
X4659706Y1326108D03*
G01*
X4509693Y1326108D03*
G01*
X4359706Y1326108D03*
G01*
X4359706Y1166088D03*
G01*
X4359706Y1006094D03*
G01*
X4509693Y1006094D03*
G01*
X4659706Y1006094D03*
M02*
