G04 Layer: TopSilkscreenLayer*
G04 EasyEDA v6.5.47, 2024-10-08 22:28:42*
G04 1ebfd5db29c148b9bf331c51237545a2,bd0a3265f8cf4f36a4e098e39f96ef10,10*
G04 Gerber Generator version 0.2*
G04 Scale: 100 percent, Rotated: No, Reflected: No *
G04 Dimensions in millimeters *
G04 leading zeros omitted , absolute positions ,4 integer and 5 decimal *
%FSLAX45Y45*%
%MOMM*%

%ADD10C,0.1524*%
%ADD11C,0.1270*%
%ADD12C,0.2540*%

%LPD*%
G36*
X1159611Y1699869D02*
G01*
X1150721Y1699514D01*
X1146302Y1698904D01*
X1140104Y1698447D01*
X1135938Y1697888D01*
X1133144Y1697126D01*
X1128725Y1696669D01*
X1125829Y1695704D01*
X1121206Y1694891D01*
X1119581Y1694078D01*
X1115669Y1693316D01*
X1113993Y1692452D01*
X1110792Y1691690D01*
X1108913Y1690725D01*
X1106728Y1690268D01*
X1105001Y1689252D01*
X1102156Y1688490D01*
X1101039Y1687677D01*
X1098651Y1686966D01*
X1097432Y1686102D01*
X1094943Y1685289D01*
X1094130Y1684528D01*
X1091895Y1683664D01*
X1090879Y1682902D01*
X1088644Y1682089D01*
X1087526Y1681175D01*
X1086154Y1680616D01*
X1085342Y1679905D01*
X1083106Y1678889D01*
X1082548Y1678228D01*
X1080160Y1677162D01*
X1079601Y1676501D01*
X1077671Y1675536D01*
X1077417Y1675130D01*
X1075740Y1674266D01*
X1074318Y1672996D01*
X1071168Y1670913D01*
X1059688Y1661617D01*
X1050950Y1653133D01*
X1043228Y1644446D01*
X1037082Y1636217D01*
X1032103Y1629054D01*
X1031036Y1626768D01*
X1030478Y1626311D01*
X1029716Y1624634D01*
X1028496Y1622907D01*
X1028496Y1622450D01*
X1027074Y1620266D01*
X1026464Y1618386D01*
X1025702Y1617675D01*
X1025042Y1615643D01*
X1023924Y1614068D01*
X1023467Y1612239D01*
X1022502Y1610817D01*
X1021638Y1608328D01*
X1020724Y1606854D01*
X1020216Y1604670D01*
X1019098Y1602638D01*
X1018489Y1600149D01*
X1017524Y1598269D01*
X1017066Y1595882D01*
X1015949Y1593240D01*
X1015339Y1589989D01*
X1014425Y1587906D01*
X1013866Y1584299D01*
X1012748Y1580896D01*
X1012240Y1576476D01*
X1011275Y1572768D01*
X1009700Y1557070D01*
X1009572Y1549146D01*
X1029868Y1549146D01*
X1030782Y1549806D01*
X1159611Y1549806D01*
X1159611Y1678635D01*
X1160221Y1679498D01*
X1173886Y1679092D01*
X1180084Y1677924D01*
X1184300Y1677466D01*
X1189482Y1676146D01*
X1192428Y1675688D01*
X1193952Y1674926D01*
X1197965Y1674114D01*
X1199896Y1673148D01*
X1202283Y1672691D01*
X1204722Y1671523D01*
X1206703Y1671066D01*
X1208278Y1670151D01*
X1210665Y1669491D01*
X1212494Y1668373D01*
X1214729Y1667713D01*
X1215186Y1667154D01*
X1217930Y1666087D01*
X1219250Y1665122D01*
X1221130Y1664512D01*
X1221689Y1663852D01*
X1223822Y1662887D01*
X1225092Y1661972D01*
X1226667Y1661312D01*
X1227480Y1660550D01*
X1229258Y1659686D01*
X1230579Y1658518D01*
X1231036Y1658518D01*
X1236573Y1654708D01*
X1236573Y1654403D01*
X1240536Y1651609D01*
X1248460Y1644650D01*
X1255471Y1637588D01*
X1261516Y1630629D01*
X1264208Y1626717D01*
X1264513Y1626717D01*
X1268323Y1621180D01*
X1268323Y1620774D01*
X1269492Y1619453D01*
X1270406Y1617624D01*
X1271117Y1616862D01*
X1271778Y1615236D01*
X1272743Y1614017D01*
X1273657Y1611833D01*
X1274318Y1611325D01*
X1274978Y1609394D01*
X1275943Y1608074D01*
X1276959Y1605381D01*
X1277569Y1604924D01*
X1278178Y1602638D01*
X1279296Y1600860D01*
X1279956Y1598472D01*
X1280922Y1596847D01*
X1281328Y1594916D01*
X1282496Y1592478D01*
X1283004Y1590090D01*
X1283970Y1588160D01*
X1284782Y1584096D01*
X1285544Y1582572D01*
X1286002Y1579676D01*
X1287322Y1574495D01*
X1287780Y1570278D01*
X1288897Y1564030D01*
X1289354Y1550416D01*
X1288440Y1549806D01*
X1159611Y1549806D01*
X1159611Y1420977D01*
X1158951Y1420012D01*
X1148334Y1420266D01*
X1143812Y1420672D01*
X1140206Y1421485D01*
X1134211Y1422196D01*
X1131620Y1423060D01*
X1126896Y1423822D01*
X1124966Y1424686D01*
X1121714Y1425295D01*
X1119124Y1426413D01*
X1116736Y1426921D01*
X1114755Y1427937D01*
X1111961Y1428699D01*
X1110945Y1429410D01*
X1108151Y1430274D01*
X1106830Y1431239D01*
X1104950Y1431696D01*
X1102410Y1433068D01*
X1101699Y1433271D01*
X1099566Y1434693D01*
X1098905Y1434693D01*
X1096924Y1436014D01*
X1096060Y1436268D01*
X1094536Y1437335D01*
X1092301Y1438452D01*
X1091996Y1438859D01*
X1089964Y1439926D01*
X1088644Y1441043D01*
X1088186Y1441043D01*
X1083411Y1444345D01*
X1078179Y1448409D01*
X1074369Y1451762D01*
X1072743Y1452930D01*
X1062736Y1462938D01*
X1061567Y1464564D01*
X1058214Y1468374D01*
X1050848Y1478381D01*
X1050848Y1478838D01*
X1049731Y1480159D01*
X1048664Y1482191D01*
X1048258Y1482496D01*
X1046073Y1486306D01*
X1046073Y1486712D01*
X1044498Y1489100D01*
X1044498Y1489760D01*
X1043076Y1491894D01*
X1042619Y1493316D01*
X1041501Y1495145D01*
X1041044Y1497025D01*
X1040079Y1498295D01*
X1039215Y1501140D01*
X1038504Y1502156D01*
X1037742Y1504950D01*
X1036726Y1506931D01*
X1036218Y1509318D01*
X1035100Y1511909D01*
X1034643Y1514703D01*
X1033627Y1517091D01*
X1032865Y1521815D01*
X1032154Y1523695D01*
X1031290Y1530350D01*
X1030478Y1534007D01*
X1030020Y1540713D01*
X1029868Y1549146D01*
X1009572Y1549146D01*
X1009853Y1540713D01*
X1010462Y1536293D01*
X1011275Y1526794D01*
X1012240Y1523136D01*
X1012698Y1518716D01*
X1013714Y1515821D01*
X1014425Y1511503D01*
X1015339Y1509522D01*
X1016101Y1505610D01*
X1016863Y1504289D01*
X1017727Y1500733D01*
X1018438Y1499514D01*
X1019302Y1496364D01*
X1020267Y1494739D01*
X1020724Y1492707D01*
X1021842Y1490726D01*
X1022350Y1489151D01*
X1023619Y1486712D01*
X1023924Y1485544D01*
X1025093Y1483715D01*
X1025652Y1482140D01*
X1026668Y1480616D01*
X1027328Y1478686D01*
X1027937Y1478127D01*
X1029258Y1475536D01*
X1029512Y1475384D01*
X1030630Y1472895D01*
X1031087Y1472590D01*
X1032154Y1470558D01*
X1033271Y1469237D01*
X1033271Y1468678D01*
X1034440Y1467358D01*
X1035456Y1465326D01*
X1036472Y1464411D01*
X1036472Y1463903D01*
X1037539Y1462938D01*
X1038453Y1461160D01*
X1039317Y1460347D01*
X1040079Y1458874D01*
X1040841Y1458468D01*
X1043940Y1454302D01*
X1047750Y1449832D01*
X1056386Y1440942D01*
X1061669Y1436166D01*
X1066038Y1432560D01*
X1068273Y1431036D01*
X1068679Y1430274D01*
X1070152Y1429512D01*
X1070965Y1428648D01*
X1072743Y1427734D01*
X1073708Y1426667D01*
X1074216Y1426667D01*
X1075182Y1425651D01*
X1077163Y1424635D01*
X1078484Y1423466D01*
X1079042Y1423466D01*
X1080363Y1422349D01*
X1082446Y1421282D01*
X1082700Y1420825D01*
X1085189Y1419707D01*
X1085494Y1419250D01*
X1087932Y1418132D01*
X1088491Y1417523D01*
X1090523Y1416812D01*
X1091844Y1415846D01*
X1093520Y1415288D01*
X1095349Y1414119D01*
X1096518Y1413814D01*
X1098956Y1412544D01*
X1100531Y1412036D01*
X1102258Y1411071D01*
X1105103Y1410258D01*
X1106170Y1409496D01*
X1109319Y1408633D01*
X1110538Y1407922D01*
X1114094Y1407058D01*
X1115415Y1406296D01*
X1119327Y1405534D01*
X1121308Y1404620D01*
X1125626Y1403908D01*
X1128522Y1402892D01*
X1132941Y1402435D01*
X1136599Y1401521D01*
X1152499Y1399844D01*
X1166723Y1399844D01*
X1182573Y1401470D01*
X1186281Y1402435D01*
X1190650Y1402892D01*
X1194104Y1404061D01*
X1197508Y1404518D01*
X1200099Y1405534D01*
X1203604Y1406245D01*
X1205230Y1407109D01*
X1208532Y1407871D01*
X1209852Y1408684D01*
X1213053Y1409496D01*
X1214120Y1410258D01*
X1216964Y1411071D01*
X1218082Y1411833D01*
X1220774Y1412697D01*
X1221790Y1413510D01*
X1224178Y1414221D01*
X1225194Y1415084D01*
X1227429Y1415897D01*
X1228648Y1416812D01*
X1230071Y1417269D01*
X1232255Y1418691D01*
X1232662Y1418691D01*
X1234998Y1420266D01*
X1235557Y1420266D01*
X1237284Y1421587D01*
X1238961Y1422349D01*
X1239672Y1423111D01*
X1241552Y1424076D01*
X1241755Y1424482D01*
X1244142Y1425752D01*
X1244142Y1426057D01*
X1247851Y1428546D01*
X1253236Y1432814D01*
X1254302Y1433423D01*
X1259332Y1437792D01*
X1265631Y1443786D01*
X1272235Y1450746D01*
X1278737Y1458671D01*
X1282750Y1464106D01*
X1282750Y1464462D01*
X1284071Y1465935D01*
X1284935Y1467612D01*
X1285341Y1467866D01*
X1286306Y1469745D01*
X1286967Y1470355D01*
X1288135Y1472742D01*
X1288846Y1473555D01*
X1289354Y1474825D01*
X1290726Y1476756D01*
X1290726Y1477162D01*
X1292148Y1479296D01*
X1292758Y1481175D01*
X1293520Y1481886D01*
X1294180Y1483918D01*
X1295196Y1485290D01*
X1295908Y1487627D01*
X1296720Y1488795D01*
X1297584Y1491335D01*
X1298295Y1492351D01*
X1299108Y1495196D01*
X1300124Y1496923D01*
X1300581Y1499108D01*
X1301546Y1501038D01*
X1302359Y1504289D01*
X1303172Y1505864D01*
X1303883Y1509776D01*
X1304747Y1511503D01*
X1305509Y1515973D01*
X1306474Y1518920D01*
X1306982Y1523288D01*
X1308100Y1527911D01*
X1309573Y1543100D01*
X1309573Y1556512D01*
X1308557Y1565503D01*
X1308100Y1571498D01*
X1306982Y1576273D01*
X1306474Y1580692D01*
X1305509Y1583537D01*
X1304747Y1588160D01*
X1303883Y1589786D01*
X1303172Y1593748D01*
X1302308Y1595374D01*
X1301496Y1598676D01*
X1300734Y1599996D01*
X1300073Y1602638D01*
X1299108Y1604365D01*
X1298295Y1607159D01*
X1297381Y1608632D01*
X1296873Y1610461D01*
X1295755Y1612239D01*
X1295349Y1613916D01*
X1294282Y1615389D01*
X1293520Y1617472D01*
X1292352Y1619199D01*
X1292352Y1619910D01*
X1290726Y1622247D01*
X1290726Y1622704D01*
X1286865Y1629359D01*
X1286611Y1629359D01*
X1285544Y1631238D01*
X1284681Y1632254D01*
X1283970Y1633880D01*
X1283106Y1634642D01*
X1282395Y1636014D01*
X1281480Y1636826D01*
X1280769Y1638249D01*
X1272184Y1648866D01*
X1266850Y1654606D01*
X1258671Y1662328D01*
X1248105Y1670964D01*
X1246682Y1671675D01*
X1245870Y1672539D01*
X1244447Y1673250D01*
X1243685Y1674114D01*
X1242060Y1674875D01*
X1241094Y1675739D01*
X1239164Y1676755D01*
X1239164Y1677060D01*
X1236878Y1678127D01*
X1235811Y1679041D01*
X1234490Y1679600D01*
X1232509Y1680921D01*
X1232052Y1680921D01*
X1229715Y1682496D01*
X1229004Y1682496D01*
X1227277Y1683715D01*
X1225245Y1684477D01*
X1223721Y1685493D01*
X1222095Y1685950D01*
X1220266Y1687068D01*
X1218488Y1687525D01*
X1217015Y1688490D01*
X1214221Y1689252D01*
X1212494Y1690268D01*
X1209802Y1690878D01*
X1208481Y1691690D01*
X1205179Y1692452D01*
X1203553Y1693316D01*
X1199642Y1694078D01*
X1198016Y1694891D01*
X1193393Y1695704D01*
X1190498Y1696669D01*
X1186078Y1697126D01*
X1183284Y1697888D01*
X1179118Y1698447D01*
X1172921Y1698904D01*
X1168501Y1699514D01*
G37*
D10*
X4840477Y1753107D02*
G01*
X4835143Y1763521D01*
X4824729Y1773936D01*
X4814570Y1779015D01*
X4793741Y1779015D01*
X4783327Y1773936D01*
X4772913Y1763521D01*
X4767579Y1753107D01*
X4762500Y1737360D01*
X4762500Y1711452D01*
X4767579Y1695957D01*
X4772913Y1685544D01*
X4783327Y1675129D01*
X4793741Y1670050D01*
X4814570Y1670050D01*
X4824729Y1675129D01*
X4835143Y1685544D01*
X4840477Y1695957D01*
X4874768Y1758187D02*
G01*
X4885181Y1763521D01*
X4900675Y1779015D01*
X4900675Y1670050D01*
X4196384Y2333066D02*
G01*
X4279442Y2333066D01*
X4295190Y2327732D01*
X4300270Y2322652D01*
X4305350Y2312238D01*
X4305350Y2301824D01*
X4300270Y2291410D01*
X4295190Y2286076D01*
X4279442Y2280996D01*
X4269028Y2280996D01*
X4217212Y2367356D02*
G01*
X4211878Y2377516D01*
X4196384Y2393264D01*
X4305350Y2393264D01*
X3206800Y2965119D02*
G01*
X3206800Y2856153D01*
X3206800Y2856153D02*
G01*
X3269030Y2856153D01*
X3303320Y2944291D02*
G01*
X3313734Y2949625D01*
X3329482Y2965119D01*
X3329482Y2856153D01*
X5081015Y2578100D02*
G01*
X4972050Y2578100D01*
X5081015Y2578100D02*
G01*
X5081015Y2531363D01*
X5075936Y2515870D01*
X5070602Y2510536D01*
X5060188Y2505455D01*
X5049774Y2505455D01*
X5039359Y2510536D01*
X5034279Y2515870D01*
X5029200Y2531363D01*
X5029200Y2578100D01*
X5029200Y2541778D02*
G01*
X4972050Y2505455D01*
X5060188Y2471165D02*
G01*
X5065522Y2460752D01*
X5081015Y2445004D01*
X4972050Y2445004D01*
X81584Y1544396D02*
G01*
X159562Y1544396D01*
X175056Y1549476D01*
X185470Y1559890D01*
X190550Y1575638D01*
X190550Y1586052D01*
X185470Y1601546D01*
X175056Y1611960D01*
X159562Y1617040D01*
X81584Y1617040D01*
X107492Y1656664D02*
G01*
X102412Y1656664D01*
X91998Y1661744D01*
X86664Y1667078D01*
X81584Y1677492D01*
X81584Y1698066D01*
X86664Y1708480D01*
X91998Y1713814D01*
X102412Y1718894D01*
X112826Y1718894D01*
X123240Y1713814D01*
X138734Y1703400D01*
X190550Y1651330D01*
X190550Y1724228D01*
D11*
X1541830Y782396D02*
G01*
X1663242Y828624D01*
X1541830Y874852D02*
G01*
X1663242Y828624D01*
X1541830Y912952D02*
G01*
X1663242Y912952D01*
X1541830Y951052D02*
G01*
X1663242Y951052D01*
X1541830Y951052D02*
G01*
X1663242Y1031824D01*
X1541830Y1031824D02*
G01*
X1663242Y1031824D01*
X1846630Y1022426D02*
G01*
X1846630Y1085926D01*
X1892858Y1051382D01*
X1892858Y1068654D01*
X1898700Y1080338D01*
X1904542Y1085926D01*
X1921814Y1091768D01*
X1933244Y1091768D01*
X1950770Y1085926D01*
X1962200Y1074496D01*
X1968042Y1057224D01*
X1968042Y1039952D01*
X1962200Y1022426D01*
X1956358Y1016838D01*
X1944928Y1010996D01*
X1846630Y1129868D02*
G01*
X1968042Y1176096D01*
X1846630Y1222324D02*
G01*
X1968042Y1176096D01*
X1846630Y1271854D02*
G01*
X1846630Y1335354D01*
X1892858Y1300810D01*
X1892858Y1318082D01*
X1898700Y1329766D01*
X1904542Y1335354D01*
X1921814Y1341196D01*
X1933244Y1341196D01*
X1950770Y1335354D01*
X1962200Y1323924D01*
X1968042Y1306652D01*
X1968042Y1289126D01*
X1962200Y1271854D01*
X1956358Y1266266D01*
X1944928Y1260424D01*
X1570786Y1351610D02*
G01*
X1559356Y1345768D01*
X1547672Y1334338D01*
X1541830Y1322654D01*
X1541830Y1299540D01*
X1547672Y1288110D01*
X1559356Y1276426D01*
X1570786Y1270838D01*
X1588058Y1264996D01*
X1617014Y1264996D01*
X1634286Y1270838D01*
X1645970Y1276426D01*
X1657400Y1288110D01*
X1663242Y1299540D01*
X1663242Y1322654D01*
X1657400Y1334338D01*
X1645970Y1345768D01*
X1634286Y1351610D01*
X1617014Y1351610D01*
X1617014Y1322654D02*
G01*
X1617014Y1351610D01*
X1541830Y1389710D02*
G01*
X1663242Y1389710D01*
X1541830Y1389710D02*
G01*
X1663242Y1470482D01*
X1541830Y1470482D02*
G01*
X1663242Y1470482D01*
X1541830Y1508582D02*
G01*
X1663242Y1508582D01*
X1541830Y1508582D02*
G01*
X1541830Y1548968D01*
X1547672Y1566240D01*
X1559356Y1577924D01*
X1570786Y1583766D01*
X1588058Y1589354D01*
X1617014Y1589354D01*
X1634286Y1583766D01*
X1645970Y1577924D01*
X1657400Y1566240D01*
X1663242Y1548968D01*
X1663242Y1508582D01*
X1864156Y1599768D02*
G01*
X1852472Y1588338D01*
X1846630Y1571066D01*
X1846630Y1547952D01*
X1852472Y1530426D01*
X1864156Y1518996D01*
X1875586Y1518996D01*
X1887270Y1524838D01*
X1892858Y1530426D01*
X1898700Y1542110D01*
X1910130Y1576654D01*
X1915972Y1588338D01*
X1921814Y1593926D01*
X1933244Y1599768D01*
X1950770Y1599768D01*
X1962200Y1588338D01*
X1968042Y1571066D01*
X1968042Y1547952D01*
X1962200Y1530426D01*
X1950770Y1518996D01*
X1875586Y1724482D02*
G01*
X1864156Y1718640D01*
X1852472Y1707210D01*
X1846630Y1695526D01*
X1846630Y1672666D01*
X1852472Y1660982D01*
X1864156Y1649552D01*
X1875586Y1643710D01*
X1892858Y1637868D01*
X1921814Y1637868D01*
X1939086Y1643710D01*
X1950770Y1649552D01*
X1962200Y1660982D01*
X1968042Y1672666D01*
X1968042Y1695526D01*
X1962200Y1707210D01*
X1950770Y1718640D01*
X1939086Y1724482D01*
X1846630Y1762582D02*
G01*
X1968042Y1762582D01*
X1968042Y1762582D02*
G01*
X1968042Y1831924D01*
X1559356Y1853768D02*
G01*
X1547672Y1842338D01*
X1541830Y1825066D01*
X1541830Y1801952D01*
X1547672Y1784426D01*
X1559356Y1772996D01*
X1570786Y1772996D01*
X1582470Y1778838D01*
X1588058Y1784426D01*
X1593900Y1796110D01*
X1605330Y1830654D01*
X1611172Y1842338D01*
X1617014Y1847926D01*
X1628444Y1853768D01*
X1645970Y1853768D01*
X1657400Y1842338D01*
X1663242Y1825066D01*
X1663242Y1801952D01*
X1657400Y1784426D01*
X1645970Y1772996D01*
X1541830Y1891868D02*
G01*
X1663242Y1891868D01*
X1541830Y1891868D02*
G01*
X1541830Y1932254D01*
X1547672Y1949526D01*
X1559356Y1961210D01*
X1570786Y1967052D01*
X1588058Y1972640D01*
X1617014Y1972640D01*
X1634286Y1967052D01*
X1645970Y1961210D01*
X1657400Y1949526D01*
X1663242Y1932254D01*
X1663242Y1891868D01*
X1541830Y2056968D02*
G01*
X1663242Y2010740D01*
X1541830Y2056968D02*
G01*
X1663242Y2103196D01*
X1622856Y2028266D02*
G01*
X1622856Y2085924D01*
X1846630Y2128596D02*
G01*
X1968042Y2128596D01*
X1846630Y2166696D02*
G01*
X1968042Y2166696D01*
X1846630Y2166696D02*
G01*
X1968042Y2247468D01*
X1846630Y2247468D02*
G01*
X1968042Y2247468D01*
X1846630Y2325954D02*
G01*
X1968042Y2325954D01*
X1846630Y2285568D02*
G01*
X1846630Y2366340D01*
X779830Y579196D02*
G01*
X901242Y579196D01*
X901242Y579196D02*
G01*
X901242Y648538D01*
X797356Y767410D02*
G01*
X785672Y755726D01*
X779830Y738454D01*
X779830Y715340D01*
X785672Y698068D01*
X797356Y686638D01*
X808786Y686638D01*
X820470Y692226D01*
X826058Y698068D01*
X831900Y709752D01*
X843330Y744296D01*
X849172Y755726D01*
X855014Y761568D01*
X866444Y767410D01*
X883970Y767410D01*
X895400Y755726D01*
X901242Y738454D01*
X901242Y715340D01*
X895400Y698068D01*
X883970Y686638D01*
X779830Y805510D02*
G01*
X901242Y805510D01*
X779830Y805510D02*
G01*
X901242Y851738D01*
X779830Y897966D02*
G01*
X901242Y851738D01*
X779830Y897966D02*
G01*
X901242Y897966D01*
X797356Y1005154D02*
G01*
X785672Y999566D01*
X779830Y982040D01*
X779830Y970610D01*
X785672Y953338D01*
X802944Y941654D01*
X831900Y936066D01*
X860856Y936066D01*
X883970Y941654D01*
X895400Y953338D01*
X901242Y970610D01*
X901242Y976452D01*
X895400Y993724D01*
X883970Y1005154D01*
X866444Y1010996D01*
X860856Y1010996D01*
X843330Y1005154D01*
X831900Y993724D01*
X826058Y976452D01*
X826058Y970610D01*
X831900Y953338D01*
X843330Y941654D01*
X860856Y936066D01*
X779830Y1049096D02*
G01*
X901242Y1049096D01*
X779830Y1049096D02*
G01*
X779830Y1089482D01*
X785672Y1106754D01*
X797356Y1118438D01*
X808786Y1124026D01*
X826058Y1129868D01*
X855014Y1129868D01*
X872286Y1124026D01*
X883970Y1118438D01*
X895400Y1106754D01*
X901242Y1089482D01*
X901242Y1049096D01*
X797356Y1248740D02*
G01*
X785672Y1237310D01*
X779830Y1220038D01*
X779830Y1196924D01*
X785672Y1179652D01*
X797356Y1167968D01*
X808786Y1167968D01*
X820470Y1173810D01*
X826058Y1179652D01*
X831900Y1191082D01*
X843330Y1225626D01*
X849172Y1237310D01*
X855014Y1243152D01*
X866444Y1248740D01*
X883970Y1248740D01*
X895400Y1237310D01*
X901242Y1220038D01*
X901242Y1196924D01*
X895400Y1179652D01*
X883970Y1167968D01*
X779830Y1321638D02*
G01*
X785672Y1309954D01*
X797356Y1298524D01*
X808786Y1292682D01*
X826058Y1286840D01*
X855014Y1286840D01*
X872286Y1292682D01*
X883970Y1298524D01*
X895400Y1309954D01*
X901242Y1321638D01*
X901242Y1344752D01*
X895400Y1356182D01*
X883970Y1367866D01*
X872286Y1373454D01*
X855014Y1379296D01*
X826058Y1379296D01*
X808786Y1373454D01*
X797356Y1367866D01*
X785672Y1356182D01*
X779830Y1344752D01*
X779830Y1321638D01*
X779830Y1417396D02*
G01*
X901242Y1498168D01*
X779830Y1498168D02*
G01*
X901242Y1417396D01*
X797356Y1677238D02*
G01*
X901242Y1677238D01*
X849172Y1625168D02*
G01*
X849172Y1729054D01*
X779830Y1856054D02*
G01*
X901242Y1856054D01*
X901242Y1856054D02*
G01*
X901242Y1925396D01*
X779830Y1963496D02*
G01*
X901242Y1963496D01*
X797356Y2082368D02*
G01*
X785672Y2070938D01*
X779830Y2053666D01*
X779830Y2030552D01*
X785672Y2013026D01*
X797356Y2001596D01*
X808786Y2001596D01*
X820470Y2007438D01*
X826058Y2013026D01*
X831900Y2024710D01*
X843330Y2059254D01*
X849172Y2070938D01*
X855014Y2076526D01*
X866444Y2082368D01*
X883970Y2082368D01*
X895400Y2070938D01*
X901242Y2053666D01*
X901242Y2030552D01*
X895400Y2013026D01*
X883970Y2001596D01*
X779830Y2132152D02*
G01*
X779830Y2195652D01*
X826058Y2160854D01*
X826058Y2178126D01*
X831900Y2189810D01*
X837742Y2195652D01*
X855014Y2201240D01*
X866444Y2201240D01*
X883970Y2195652D01*
X895400Y2183968D01*
X901242Y2166696D01*
X901242Y2149424D01*
X895400Y2132152D01*
X889558Y2126310D01*
X878128Y2120468D01*
X779830Y2239340D02*
G01*
X901242Y2239340D01*
X779830Y2239340D02*
G01*
X901242Y2285568D01*
X779830Y2331796D02*
G01*
X901242Y2285568D01*
X779830Y2331796D02*
G01*
X901242Y2331796D01*
X779830Y2369896D02*
G01*
X901242Y2369896D01*
X779830Y2369896D02*
G01*
X779830Y2410282D01*
X785672Y2427554D01*
X797356Y2439238D01*
X808786Y2444826D01*
X826058Y2450668D01*
X855014Y2450668D01*
X872286Y2444826D01*
X883970Y2439238D01*
X895400Y2427554D01*
X901242Y2410282D01*
X901242Y2369896D01*
X779830Y2488768D02*
G01*
X901242Y2488768D01*
X901242Y2488768D02*
G01*
X901242Y2558110D01*
D10*
X4406900Y496315D02*
G01*
X4406900Y418337D01*
X4411979Y402844D01*
X4422393Y392429D01*
X4438141Y387350D01*
X4448556Y387350D01*
X4464050Y392429D01*
X4474463Y402844D01*
X4479543Y418337D01*
X4479543Y496315D01*
X4524247Y496315D02*
G01*
X4581397Y496315D01*
X4550409Y454660D01*
X4565904Y454660D01*
X4576318Y449579D01*
X4581397Y444500D01*
X4586731Y428752D01*
X4586731Y418337D01*
X4581397Y402844D01*
X4570984Y392429D01*
X4555490Y387350D01*
X4539995Y387350D01*
X4524247Y392429D01*
X4519168Y397510D01*
X4513834Y407923D01*
X5106415Y2044700D02*
G01*
X5028438Y2044700D01*
X5012943Y2039620D01*
X5002529Y2029205D01*
X4997450Y2013457D01*
X4997450Y2003044D01*
X5002529Y1987550D01*
X5012943Y1977136D01*
X5028438Y1972055D01*
X5106415Y1972055D01*
X5106415Y1885695D02*
G01*
X5033772Y1937765D01*
X5033772Y1859787D01*
X5106415Y1885695D02*
G01*
X4997450Y1885695D01*
X4559300Y1525015D02*
G01*
X4600956Y1416050D01*
X4642358Y1525015D02*
G01*
X4600956Y1416050D01*
X4676647Y1525015D02*
G01*
X4676647Y1416050D01*
X4676647Y1525015D02*
G01*
X4723384Y1525015D01*
X4739131Y1519936D01*
X4744211Y1514602D01*
X4749545Y1504187D01*
X4749545Y1493773D01*
X4744211Y1483360D01*
X4739131Y1478279D01*
X4723384Y1473200D01*
X4676647Y1473200D01*
X4712970Y1473200D02*
G01*
X4749545Y1416050D01*
X4783836Y1525015D02*
G01*
X4783836Y1416050D01*
X4783836Y1525015D02*
G01*
X4851400Y1525015D01*
X4783836Y1473200D02*
G01*
X4825238Y1473200D01*
X4783836Y1416050D02*
G01*
X4851400Y1416050D01*
X4963413Y1499107D02*
G01*
X4958334Y1509521D01*
X4947920Y1519936D01*
X4937506Y1525015D01*
X4916677Y1525015D01*
X4906263Y1519936D01*
X4895850Y1509521D01*
X4890770Y1499107D01*
X4885690Y1483360D01*
X4885690Y1457452D01*
X4890770Y1441957D01*
X4895850Y1431544D01*
X4906263Y1421129D01*
X4916677Y1416050D01*
X4937506Y1416050D01*
X4947920Y1421129D01*
X4958334Y1431544D01*
X4963413Y1441957D01*
X4963413Y1457452D01*
X4937506Y1457452D02*
G01*
X4963413Y1457452D01*
X4997704Y1504187D02*
G01*
X5008118Y1509521D01*
X5023865Y1525015D01*
X5023865Y1416050D01*
D12*
X4483100Y1638300D02*
G01*
X5041900Y1638300D01*
X5041900Y1435100D01*
X4483100Y1435100D01*
X4483100Y1435100D02*
G01*
X4483100Y1638300D01*
X4337100Y1709496D02*
G01*
X4337100Y2852496D01*
X4591100Y2852496D01*
X4591100Y1709496D01*
X4337100Y1709496D01*
X2606852Y563803D02*
G01*
X3806748Y563803D01*
X3806748Y2063927D01*
X3006902Y2063927D01*
X3006902Y1663877D01*
X2606852Y1663877D01*
X2606852Y563803D01*
X4006801Y480689D02*
G01*
X4006801Y413804D01*
X4006801Y680689D02*
G01*
X4006801Y646917D01*
X4006801Y880689D02*
G01*
X4006801Y846917D01*
X4006801Y1080688D02*
G01*
X4006801Y1046916D01*
X4006801Y1280690D02*
G01*
X4006801Y1246916D01*
X4006801Y1480690D02*
G01*
X4006801Y1446918D01*
X4006801Y1680690D02*
G01*
X4006801Y1646918D01*
X4006801Y1880689D02*
G01*
X4006801Y1846917D01*
X4006801Y2813804D02*
G01*
X4006801Y2046917D01*
X2406799Y480689D02*
G01*
X2406799Y413804D01*
X2406799Y680689D02*
G01*
X2406799Y646917D01*
X2406799Y880689D02*
G01*
X2406799Y846917D01*
X2406799Y1080688D02*
G01*
X2406799Y1046916D01*
X2406799Y1280688D02*
G01*
X2406799Y1246916D01*
X2406799Y1480690D02*
G01*
X2406799Y1446916D01*
X2406799Y1680690D02*
G01*
X2406799Y1646918D01*
X2406799Y1880689D02*
G01*
X2406799Y1846917D01*
X2406799Y2813804D02*
G01*
X2406799Y2046917D01*
X3789916Y413804D02*
G01*
X4006801Y413804D01*
X3589914Y413804D02*
G01*
X3623688Y413804D01*
X3389914Y413804D02*
G01*
X3423686Y413804D01*
X3189914Y413804D02*
G01*
X3223686Y413804D01*
X2989915Y413804D02*
G01*
X3023687Y413804D01*
X2789915Y413804D02*
G01*
X2823687Y413804D01*
X2406799Y413804D02*
G01*
X2623687Y413804D01*
X2406799Y2813804D02*
G01*
X4006801Y2813804D01*
X4937099Y2755900D02*
G01*
X4937099Y2395905D01*
X4737100Y2395905D01*
X4737100Y2755900D01*
X4937099Y2755900D01*
X235000Y287096D02*
G01*
X235000Y2827096D01*
X2013000Y2827096D01*
X2013000Y287096D01*
X235000Y287096D01*
X4152900Y355600D02*
G01*
X4660900Y355600D01*
X4660900Y101600D01*
X4152900Y101600D01*
X4152900Y355600D01*
X4965700Y2298700D02*
G01*
X4965700Y1790700D01*
X4711700Y1790700D01*
X4711700Y2298700D01*
X4965700Y2298700D01*
X4264710Y990600D02*
G01*
X4904714Y990600D01*
X4904714Y640587D01*
X4264710Y640587D01*
X4264710Y990600D01*
G75*
G01
X2366797Y2083816D02*
G03X2366797Y2083816I-19990J0D01*
G75*
G01
X4267200Y584200D02*
G03X4267200Y584200I-12700J0D01*
M02*
